HIERARCHY
ROOT Hips
{
	OFFSET 0.00 86.18 0.00
	CHANNELS 6 Xposition Yposition Zposition Yrotation Xrotation Zrotation
	JOINT RightUpLeg
	{
		OFFSET -9.25 0.00 0.00
		CHANNELS 6 Xposition Yposition Zposition Yrotation Xrotation Zrotation
		JOINT RightLeg
		{
			OFFSET 0.00 -42.00 0.00
			CHANNELS 6 Xposition Yposition Zposition Yrotation Xrotation Zrotation
			JOINT RightFoot
			{
				OFFSET 0.00 -42.00 0.00
				CHANNELS 6 Xposition Yposition Zposition Yrotation Xrotation Zrotation
				End Site
				{
					OFFSET 0 -1.14 11.36
				}
			}
		}
	}
	JOINT LeftUpLeg
	{
		OFFSET 9.25 0.00 0.00
		CHANNELS 6 Xposition Yposition Zposition Yrotation Xrotation Zrotation
		JOINT LeftLeg
		{
			OFFSET 0.00 -42.00 0.00
			CHANNELS 6 Xposition Yposition Zposition Yrotation Xrotation Zrotation
			JOINT LeftFoot
			{
				OFFSET 0.00 -42.00 0.00
				CHANNELS 6 Xposition Yposition Zposition Yrotation Xrotation Zrotation
				End Site
				{
					OFFSET 0 -1.14 11.36
				}
			}
		}
	}
	JOINT Spine
	{
		OFFSET 0.00 10.46 0.00
		CHANNELS 6 Xposition Yposition Zposition Yrotation Xrotation Zrotation
		JOINT Spine1
		{
			OFFSET 0.00 9.75 0.00
			CHANNELS 6 Xposition Yposition Zposition Yrotation Xrotation Zrotation
			JOINT Spine2
			{
				OFFSET 0.00 10.15 0.00
				CHANNELS 6 Xposition Yposition Zposition Yrotation Xrotation Zrotation
				JOINT Spine3
				{
					OFFSET 0.00 9.75 0.00
					CHANNELS 6 Xposition Yposition Zposition Yrotation Xrotation Zrotation
			 		JOINT Neck
					{
						OFFSET 0.00 10.42 0.00
						CHANNELS 6 Xposition Yposition Zposition Yrotation Xrotation Zrotation
						JOINT Head
						{
							OFFSET 0.00 9.50 0.00
							CHANNELS 6 Xposition Yposition Zposition Yrotation Xrotation Zrotation
							End Site
							{
								OFFSET 0 16.00 0
							}
						}    
					} 
					JOINT RightShoulder
	 					{
						OFFSET -3.20 6.94 0.00
						CHANNELS 6 Xposition Yposition Zposition Yrotation Xrotation Zrotation
						JOINT RightArm
						{
							OFFSET -16.00 0.00 0.00
							CHANNELS 6 Xposition Yposition Zposition Yrotation Xrotation Zrotation
							JOINT RightForeArm
							{
								OFFSET -26.50 0.00 0.00
								CHANNELS 6 Xposition Yposition Zposition Yrotation Xrotation Zrotation
								JOINT RightHand
								{
									OFFSET -26.00 0.00 0.00
									CHANNELS 6 Xposition Yposition Zposition Yrotation Xrotation Zrotation
									End Site
									{
										OFFSET -17.50 0 0
									}
								}
							}
						}	
					}
					JOINT LeftShoulder
					{
						OFFSET 3.20 6.94 0.00
						CHANNELS 6 Xposition Yposition Zposition Yrotation Xrotation Zrotation
						JOINT LeftArm
						{
							OFFSET 16.00 0.00 0.00
							CHANNELS 6 Xposition Yposition Zposition Yrotation Xrotation Zrotation
							JOINT LeftForeArm
							{
								OFFSET 26.50 0.00 0.00
								CHANNELS 6 Xposition Yposition Zposition Yrotation Xrotation Zrotation
								JOINT LeftHand
								{
									OFFSET 26.00 0.00 0.00
									CHANNELS 6 Xposition Yposition Zposition Yrotation Xrotation Zrotation
									End Site
									{
										OFFSET 17.50 0 0
									}
								}
							}
						}
					}     			
				}
			}
		} 
	} 
}
MOTION
Frames: 10
Frame Time: 0.010
-39.34 12.47 220.39 54.43 -13.42 100.22 -9.30 0.11 0.05 -15.66 -25.24 2.72 -0.14 -42.02 0.03 -161.76 70.20 -162.26 -0.04 -42.02 0.03 5.24 13.91 9.82 9.35 -0.08 0.04 -5.15 -17.12 -3.64 0.09 -41.96 0.07 25.64 22.23 1.42 0.09 -42.07 0.04 -30.91 20.58 -29.19 0.11 10.60 -0.34 -5.09 37.31 -31.37 -0.14 10.05 -0.37 -2.44 10.04 -7.41 -0.10 10.12 -0.06 -6.14 12.42 -11.04 -0.12 9.74 -0.17 1.06 0.67 -1.24 -0.23 10.45 -0.41 1.07 0.72 -1.25 -0.04 9.39 -0.19 13.15 25.66 -21.76 -3.32 6.91 -0.17 -11.08 6.47 -22.19 -16.00 -0.03 0.14 -4.49 -4.05 25.20 -26.54 -0.10 0.05 56.76 46.71 -27.41 -26.02 -0.36 0.08 -8.40 -26.60 -14.19 3.09 6.93 -0.23 -5.00 -1.59 10.02 15.96 0.02 0.01 -31.78 0.68 -51.02 26.50 0.05 0.03 -68.65 18.06 18.98 26.02 0.05 -0.01 -6.04 8.56 10.23 
-39.34 12.47 220.39 54.77 -14.20 99.61 -9.28 0.09 0.05 -15.12 -24.88 2.60 -0.13 -42.03 0.03 -163.36 69.83 -163.00 -0.04 -42.01 0.03 5.42 14.12 9.99 9.35 -0.09 0.04 -4.97 -17.28 -3.67 0.09 -41.96 0.07 25.32 22.23 1.25 0.08 -42.07 0.05 -31.33 20.66 -29.50 0.12 10.58 -0.33 -5.48 37.73 -31.26 -0.14 10.04 -0.35 -2.53 10.11 -7.34 -0.11 10.12 -0.05 -6.27 12.43 -10.95 -0.12 9.74 -0.17 1.05 0.66 -1.23 -0.23 10.45 -0.39 1.07 0.72 -1.25 -0.05 9.39 -0.17 13.20 25.55 -21.56 -3.33 6.91 -0.17 -10.97 6.57 -21.81 -16.02 -0.01 0.12 -4.66 -3.54 26.47 -26.51 -0.05 0.06 53.80 45.64 -29.50 -26.03 -0.13 0.04 -7.57 -28.77 -13.99 3.10 6.93 -0.23 -5.06 -1.63 10.02 15.96 0.02 0.00 -30.54 0.44 -51.19 26.50 0.04 0.02 -68.19 17.95 19.56 26.03 0.04 0.00 -6.24 8.14 10.26 
-39.34 12.47 220.39 55.03 -15.00 98.98 -9.27 0.08 0.06 -14.64 -24.43 2.49 -0.12 -42.03 0.03 -164.48 69.42 -163.39 -0.03 -42.02 0.03 5.76 14.41 10.28 9.34 -0.11 0.04 -4.76 -17.40 -3.69 0.08 -41.96 0.06 25.05 22.38 1.16 0.08 -42.08 0.05 -31.64 20.78 -29.70 0.14 10.56 -0.31 -5.85 38.19 -31.12 -0.15 10.04 -0.33 -2.62 10.18 -7.26 -0.13 10.12 -0.05 -6.39 12.46 -10.85 -0.12 9.75 -0.16 1.05 0.66 -1.22 -0.25 10.45 -0.36 1.07 0.71 -1.24 -0.06 9.38 -0.17 13.21 25.50 -21.42 -3.34 6.91 -0.14 -10.99 6.73 -21.48 -16.03 -0.01 0.11 -4.68 -3.47 27.59 -26.49 -0.01 0.04 50.87 45.05 -31.16 -26.08 -0.25 0.01 -5.61 -28.62 -16.60 3.09 6.92 -0.23 -5.16 -1.68 10.06 15.97 0.02 -0.00 -29.27 0.16 -51.50 26.50 0.05 0.03 -67.87 17.91 20.09 26.03 0.04 0.01 -6.38 7.94 10.27 
-39.34 12.47 220.39 55.25 -15.77 98.30 -9.26 0.08 0.07 -14.21 -23.89 2.41 -0.11 -42.03 0.03 -165.90 69.04 -164.10 -0.02 -42.01 0.03 6.08 14.83 10.49 9.34 -0.13 0.03 -4.52 -17.48 -3.64 0.08 -41.95 0.05 24.86 22.68 1.17 0.07 -42.08 0.05 -31.79 20.91 -29.81 0.15 10.55 -0.29 -6.19 38.63 -30.88 -0.17 10.04 -0.31 -2.70 10.25 -7.16 -0.14 10.12 -0.04 -6.49 12.50 -10.71 -0.12 9.75 -0.15 1.05 0.66 -1.22 -0.28 10.45 -0.34 1.06 0.71 -1.24 -0.07 9.38 -0.18 13.18 25.53 -21.39 -3.34 6.92 -0.12 -10.83 6.87 -21.24 -16.03 -0.02 0.10 -4.81 -3.49 28.48 -26.51 0.03 0.01 48.13 45.44 -32.58 -26.10 -0.26 -0.05 -4.84 -27.79 -18.06 3.09 6.92 -0.22 -5.05 -1.63 9.99 15.98 0.02 0.01 -28.21 -0.17 -51.82 26.50 0.06 0.04 -67.67 17.83 20.60 26.03 0.05 0.01 -6.45 7.99 10.29 
-39.34 12.47 220.39 55.43 -16.52 97.57 -9.26 0.06 0.06 -13.81 -23.37 2.39 -0.10 -42.02 0.02 -167.62 68.64 -165.13 -0.01 -42.01 0.02 6.38 15.41 10.72 9.34 -0.15 0.02 -4.20 -17.56 -3.55 0.07 -41.95 0.05 24.71 23.12 1.26 0.06 -42.08 0.06 -31.74 21.05 -29.71 0.16 10.53 -0.26 -6.37 39.08 -30.60 -0.19 10.04 -0.29 -2.73 10.35 -7.06 -0.15 10.12 -0.03 -6.53 12.60 -10.58 -0.12 9.75 -0.14 1.05 0.66 -1.21 -0.30 10.45 -0.32 1.06 0.71 -1.23 -0.09 9.37 -0.20 13.20 25.47 -21.25 -3.34 6.93 -0.12 -10.46 6.88 -20.80 -16.02 -0.02 0.09 -5.18 -3.27 29.18 -26.53 0.01 -0.00 45.53 45.80 -33.81 -26.07 -0.20 -0.08 -4.42 -26.31 -18.74 3.08 6.91 -0.21 -5.09 -1.60 10.09 15.98 0.01 -0.00 -27.21 -0.45 -52.15 26.49 0.06 0.04 -67.53 17.66 21.11 26.04 0.05 0.01 -6.56 8.18 10.32 
-39.34 12.47 220.39 55.68 -17.32 96.71 -9.26 0.04 0.07 -13.51 -22.86 2.47 -0.09 -42.01 0.03 -169.52 68.26 -166.33 -0.00 -42.00 0.02 6.71 16.10 10.81 9.34 -0.16 0.02 -3.85 -17.70 -3.33 0.07 -41.96 0.05 24.43 23.71 1.31 0.04 -42.08 0.06 -31.37 21.21 -29.18 0.16 10.52 -0.25 -6.48 39.47 -30.23 -0.20 10.03 -0.27 -2.74 10.43 -6.94 -0.17 10.12 -0.03 -6.53 12.69 -10.43 -0.12 9.75 -0.14 1.05 0.65 -1.21 -0.31 10.45 -0.31 1.06 0.70 -1.22 -0.10 9.37 -0.20 13.35 25.28 -21.06 -3.34 6.93 -0.13 -10.01 7.01 -20.40 -16.01 -0.03 0.07 -5.60 -3.01 29.91 -26.54 -0.05 0.00 43.56 45.43 -34.55 -26.05 -0.17 -0.06 -3.99 -24.71 -19.53 3.08 6.91 -0.20 -5.02 -1.53 10.12 15.99 0.02 -0.01 -26.48 -0.64 -52.36 26.49 0.06 0.03 -67.43 17.48 21.72 26.04 0.05 0.02 -6.66 8.39 10.38 
-39.34 12.47 220.39 55.94 -18.13 95.78 -9.26 0.03 0.08 -13.20 -22.35 2.57 -0.08 -42.01 0.05 -171.75 67.87 -167.80 0.01 -41.98 0.01 6.96 16.88 10.72 9.33 -0.16 0.03 -3.39 -17.86 -3.05 0.07 -41.96 0.07 23.89 24.40 1.26 0.03 -42.08 0.06 -30.69 21.45 -28.26 0.16 10.51 -0.24 -6.57 39.82 -29.84 -0.20 10.04 -0.26 -2.75 10.51 -6.83 -0.18 10.11 -0.03 -6.52 12.79 -10.27 -0.13 9.75 -0.14 1.05 0.64 -1.20 -0.33 10.45 -0.32 1.07 0.69 -1.21 -0.10 9.36 -0.22 13.62 25.04 -20.84 -3.34 6.92 -0.14 -9.62 7.15 -20.14 -16.01 -0.04 0.06 -5.92 -2.68 30.74 -26.52 -0.10 0.02 42.59 44.00 -34.30 -26.06 -0.17 -0.01 -3.14 -23.60 -21.29 3.08 6.91 -0.20 -4.94 -1.48 10.12 15.99 0.01 -0.03 -25.84 -0.65 -52.49 26.49 0.04 0.02 -67.39 17.31 22.40 26.05 0.05 0.02 -6.82 8.52 10.43 
-39.34 12.47 220.39 56.21 -18.92 94.82 -9.24 0.02 0.10 -12.78 -21.87 2.62 -0.05 -42.02 0.05 -174.05 67.33 -169.30 0.02 -41.97 0.03 7.36 17.51 10.85 9.32 -0.16 0.04 -2.86 -18.07 -2.70 0.05 -41.97 0.10 23.42 25.24 1.24 0.02 -42.08 0.08 -29.98 21.69 -27.15 0.17 10.50 -0.23 -6.62 40.15 -29.44 -0.21 10.05 -0.25 -2.74 10.58 -6.71 -0.20 10.11 -0.03 -6.50 12.89 -10.12 -0.13 9.75 -0.14 1.06 0.62 -1.19 -0.34 10.45 -0.34 1.08 0.67 -1.21 -0.10 9.35 -0.24 13.95 24.72 -20.62 -3.35 6.92 -0.15 -9.24 7.32 -19.81 -16.01 -0.03 0.05 -6.15 -2.24 31.40 -26.49 -0.12 0.04 42.58 41.50 -33.19 -26.07 -0.16 0.07 -2.05 -22.50 -23.52 3.08 6.91 -0.20 -4.84 -1.46 10.10 15.99 0.02 -0.03 -25.19 -0.58 -52.70 26.49 0.04 0.01 -67.47 17.33 23.11 26.05 0.04 0.02 -6.96 8.52 10.50 
-39.34 12.47 220.39 56.43 -19.66 93.87 -9.25 -0.01 0.07 -12.60 -21.52 2.86 -0.04 -42.08 -0.00 -176.13 66.47 -170.90 0.06 -41.96 0.09 7.67 17.93 11.17 9.31 -0.17 0.02 -2.28 -18.30 -2.36 0.03 -42.00 0.17 23.09 26.32 1.35 -0.03 -42.06 0.15 -29.24 21.86 -25.94 0.18 10.49 -0.21 -6.67 40.51 -29.04 -0.22 10.06 -0.24 -2.73 10.66 -6.60 -0.21 10.11 -0.03 -6.48 13.00 -9.96 -0.14 9.75 -0.14 1.07 0.60 -1.19 -0.37 10.44 -0.37 1.08 0.65 -1.20 -0.10 9.34 -0.27 14.30 24.33 -20.48 -3.35 6.92 -0.15 -8.96 7.40 -19.51 -16.01 -0.03 0.04 -6.27 -1.77 31.89 -26.47 -0.11 0.05 43.25 38.42 -31.45 -26.06 -0.14 0.10 -1.06 -20.84 -25.52 3.07 6.92 -0.20 -4.77 -1.50 10.04 16.00 0.02 -0.02 -24.48 -0.41 -52.92 26.50 0.04 0.02 -67.69 17.46 23.79 26.05 0.03 0.02 -7.13 8.41 10.54 
-39.34 12.47 220.39 56.73 -20.43 92.84 -9.24 -0.01 0.10 -12.17 -21.10 2.98 -0.02 -42.07 0.02 -178.90 65.95 -172.82 0.07 -41.95 0.10 7.86 18.48 11.65 9.31 -0.17 0.00 -1.77 -18.64 -1.96 -0.00 -42.03 0.22 22.88 27.41 1.48 -0.06 -42.05 0.20 -28.45 22.03 -24.70 0.21 10.46 -0.18 -6.70 40.86 -28.59 -0.14 9.93 -0.17 -2.72 10.74 -6.47 -0.14 10.14 0.06 -6.44 13.11 -9.79 -0.03 9.74 -0.03 1.08 0.57 -1.19 -0.18 10.42 -0.19 1.09 0.62 -1.20 -0.05 9.39 -0.18 14.60 23.86 -20.43 -3.25 6.91 -0.03 -8.80 7.28 -19.20 -16.01 -0.05 0.05 -6.37 -1.28 32.10 -26.49 -0.07 0.02 44.49 35.19 -29.14 -26.05 -0.11 0.06 -0.36 -18.32 -27.34 3.17 6.91 -0.09 -4.79 -1.69 9.96 15.99 0.02 -0.02 -23.78 -0.18 -53.08 26.50 0.03 0.02 -67.98 17.55 24.40 26.06 0.02 0.02 -7.28 8.28 10.57 
